<svg width="24" height="24" viewBox="0 0 24 24" fill="none" xmlns="http://www.w3.org/2000/svg">
<path d="M16.3655 6.41531C14.4755 6.41531 13.6767 7.31719 12.3605 7.31719C11.0109 7.31719 9.98156 6.42188 8.34375 6.42188C6.74063 6.42188 5.0311 7.40063 3.94547 9.06797C2.4211 11.4192 2.67985 15.8475 5.14875 19.62C6.03188 20.9705 7.21125 22.485 8.75813 22.5014H8.78625C10.1306 22.5014 10.53 21.6211 12.3802 21.6108H12.4083C14.2308 21.6108 14.5964 22.4963 15.9352 22.4963H15.9633C17.5102 22.4798 18.7528 20.8017 19.6359 19.4564C20.2716 18.4889 20.5078 18.0033 20.9953 16.9088C17.4239 15.5531 16.8502 10.4902 20.3822 8.54906C19.3041 7.19906 17.7891 6.41719 16.3608 6.41719L16.3655 6.41531Z" fill="black"/>
<path d="M15.9492 1.5C14.8242 1.57641 13.5117 2.29266 12.743 3.22781C12.0455 4.07531 11.4717 5.3325 11.6967 6.55172H11.7867C12.9848 6.55172 14.2111 5.83031 14.9273 4.90594C15.6173 4.02609 16.1405 2.77922 15.9492 1.5Z" fill="black"/>
</svg>
