<svg width="24" height="24" viewBox="0 0 24 24" fill="none" xmlns="http://www.w3.org/2000/svg">
<path d="M21.7491 5.23219C21.7488 5.21825 21.7481 5.20438 21.747 5.19056C21.7461 5.17931 21.745 5.16812 21.7436 5.157C21.739 5.11993 21.7316 5.08327 21.7215 5.04731C21.7183 5.03577 21.7149 5.02429 21.7112 5.01291C21.7072 5.00111 21.7029 4.98942 21.6982 4.97784C21.694 4.96677 21.6895 4.9558 21.6847 4.94494C21.6643 4.90004 21.6398 4.85713 21.6114 4.81678C21.5969 4.79633 21.5813 4.77662 21.5648 4.75772C21.5607 4.75294 21.5572 4.74788 21.5528 4.74319C21.5493 4.73925 21.5453 4.73597 21.5416 4.73213C21.5325 4.72266 21.5231 4.71344 21.5136 4.70447C21.5048 4.69613 21.4959 4.68801 21.4867 4.68009C21.4777 4.67242 21.4684 4.66498 21.459 4.65778C21.4489 4.64979 21.4386 4.64206 21.4281 4.63463C21.4189 4.62825 21.4093 4.62234 21.3999 4.61634C21.3889 4.60923 21.3777 4.60241 21.3663 4.59591C21.3562 4.59028 21.3459 4.58522 21.3357 4.57997C21.3245 4.57434 21.3132 4.56872 21.3019 4.56375C21.2906 4.55878 21.279 4.55438 21.2674 4.54997C21.2564 4.54575 21.2455 4.54153 21.2345 4.53787C21.2223 4.53384 21.2097 4.53056 21.1973 4.52709C21.1863 4.52409 21.1753 4.52109 21.1642 4.51866C21.1517 4.51596 21.1392 4.51359 21.1266 4.51153C21.1148 4.50944 21.103 4.50762 21.0911 4.50609C21.0791 4.50471 21.0671 4.50361 21.055 4.50281C21.042 4.50181 21.0289 4.50116 21.0158 4.50084C21.0105 4.50066 21.0053 4.5 21 4.5H3C2.99494 4.5 2.99016 4.50066 2.985 4.50075C2.9712 4.50106 2.95742 4.50175 2.94366 4.50281C2.93222 4.50375 2.92097 4.50469 2.90972 4.50591C2.89714 4.50752 2.8846 4.50945 2.87212 4.51172C2.86012 4.51378 2.84822 4.51575 2.8365 4.51847C2.82469 4.52109 2.81306 4.52428 2.80134 4.52747C2.78953 4.53075 2.77772 4.53394 2.76609 4.53778C2.75437 4.54153 2.74284 4.54603 2.73131 4.55044C2.72034 4.55466 2.70937 4.55878 2.69869 4.56347C2.68669 4.56872 2.67506 4.57463 2.66334 4.58053C2.6535 4.5855 2.64366 4.59028 2.63409 4.59563C2.62238 4.60219 2.61094 4.60941 2.59941 4.61672C2.59031 4.62253 2.58103 4.62825 2.57222 4.63453C2.56144 4.64194 2.55103 4.64991 2.54063 4.65797C2.53138 4.66509 2.52232 4.67244 2.51344 4.68C2.50418 4.688 2.49511 4.69622 2.48625 4.70466C2.47669 4.71356 2.4675 4.72266 2.45841 4.73203C2.45475 4.73587 2.45072 4.73925 2.44716 4.74328C2.44284 4.74797 2.43928 4.75294 2.43516 4.75763C2.41869 4.77656 2.40314 4.79627 2.38856 4.81669C2.3172 4.91754 2.2718 5.03442 2.25638 5.157C2.255 5.16812 2.25387 5.17931 2.253 5.19056C2.25194 5.20444 2.25125 5.21828 2.25094 5.23209C2.25075 5.23809 2.25 5.244 2.25 5.25V18C2.25045 18.3977 2.40863 18.779 2.68983 19.0602C2.97104 19.3414 3.35231 19.4996 3.75 19.5H20.25C20.6477 19.4996 21.029 19.3414 21.3102 19.0602C21.5914 18.779 21.7496 18.3977 21.75 18V5.25C21.75 5.244 21.7493 5.23809 21.7491 5.23219ZM3.75 6.95484L9.25369 12L3.75 17.0451V6.95484ZM13.1383 11.439L13.1378 11.4395L12 12.4825L4.92816 6H19.0718L13.1383 11.439ZM10.3637 13.0174L11.4932 14.0527C11.6315 14.1795 11.8124 14.2499 12 14.2499C12.1876 14.2499 12.3685 14.1795 12.5068 14.0527L13.6364 13.0174L19.0718 18H4.92816L10.3637 13.0174ZM14.7463 12L20.2502 6.95484L20.2508 17.0458L14.7463 12Z" fill="white"/>
</svg>
